# xmcd CD database file
#
# Track frame offsets:
#	150
#	12437
#	24125
#	35022
#	48305
#	59882
#	78207
#	92435
#	104437
#	114397
#	127607
#	138535
#	151407
#	161670
#	175190
#	187617
#	198322
#	211392
#	228345
#	242047
#
# Disc length: 3524 seconds
#
# Revision: 0
# Processed by: cddbd v1.4PL0 Copyright (c) Steve Scherf et al.
# Submitted via: CDex 1.50
#
DISCID=fb0dc214
DTITLE=Howlin' Wolf - Gitanes Blues
DYEAR=1999
DGENRE=Blues
TTITLE0=How Many More Years
TTITLE1=Saddle My Pony
TTITLE2=Who's Been Talkin'
TTITLE3=Evil
TTITLE4=Howlin' For My Darling
TTITLE5=Goin' Down Slow
TTITLE6=Smokestack Lightin'
TTITLE7=Built For Comfort
TTITLE8=The Natchez Burnin'
TTITLE9=I Ain't Superstitious
TTITLE10=Wang Dang Doodle
TTITLE11=Back Door Man
TTITLE12=Shake For Me
TTITLE13=Tail Dragger
TTITLE14=Spoonful
TTITLE15=Hidden Charms
TTITLE16=Stop Using Me
TTITLE17=Coon On The Moon
TTITLE18=What a Woman ( Commit a Crime )
TTITLE19=I Had a Dream
EXTD=YEAR: 1999
EXTT0=
EXTT1=
EXTT2=
EXTT3=
EXTT4=
EXTT5=
EXTT6=
EXTT7=
EXTT8=
EXTT9=
EXTT10=
EXTT11=
EXTT12=
EXTT13=
EXTT14=
EXTT15=
EXTT16=
EXTT17=
EXTT18=
EXTT19=
PLAYORDER=
